<svg xmlns="http://www.w3.org/2000/svg" width="23" height="16" viewBox="0 0 23 16" version="1.1">
  <g stroke="none" stroke-width="1" fill="none" fill-rule="evenodd">
    <g transform="translate(-709.000000, -659.000000)" fill="#7dc855">
      <g transform="translate(0.000000, -125.000000)">
        <g transform="translate(601.000000, 777.000000)">
          <path d="M126.5 12.3L128.5 14.4C129 14.8 129.5 14.7 129.6 14L130.5 8.1C130.6 7.4 130.1 6.9 129.4 7L123.5 7.9C122.8 8 122.7 8.5 123.1 8.9L125.2 11 119.7 16.5 116.9 13.8C116.7 13.6 116.5 13.5 116.3 13.5 116.1 13.5 115.8 13.6 115.7 13.8L108.3 21.2C107.9 21.5 107.9 22.1 108.3 22.4 108.4 22.6 108.7 22.7 108.9 22.7 109.1 22.7 109.3 22.6 109.5 22.4L116.3 15.6 119.1 18.4C119.4 18.8 120 18.8 120.3 18.4L126.5 12.3Z"/>
        </g>
      </g>
    </g>
  </g>
</svg>