<svg xmlns="http://www.w3.org/2000/svg" width="21" height="21" viewBox="0 0 21 21" version="1.1">
  <g stroke="none" stroke-width="1" fill="none" fill-rule="evenodd">
    <g transform="translate(-412.000000, -655.000000)" fill="#7dc855">
      <g transform="translate(0.000000, -125.000000)">
        <g transform="translate(308.000000, 778.000000)">
          <g transform="translate(104.000000, 0.000000)">
            <path d="M0.4 10.7C-0.1 10.5-0.1 9.8 0.4 9.6L19.5 2C20 1.9 20.4 2.2 20.4 2.6L19.3 19.2C19.3 19.6 19.1 20.2 18.7 20L11.8 16C11.5 15.8 11.6 16.6 11.4 16.9L9.1 22.1C8.8 22.7 7.9 22.5 7.9 21.8L7.9 14.7C7.9 14.4 8 14.1 8.3 13.8L17.3 5.6 6.4 12.3C6.1 12.5 5.7 12.5 5.3 12.4 5.3 12.4-1.2 10.1 0.4 10.7Z"/>
          </g>
        </g>
      </g>
    </g>
  </g>
</svg>