<svg xmlns="http://www.w3.org/2000/svg" width="25" height="23" viewBox="0 0 25 23" version="1.1">
  <g stroke="none" stroke-width="1" fill="none" fill-rule="evenodd">
    <g transform="translate(-1000.000000, -660.000000)" fill="#7dc855">
      <g transform="translate(0.000000, -125.000000)">
        <g transform="translate(893.000000, 785.000000)">
          <path d="M119.2 20.8L119.2 20.8C117.6 20.8 115.8 20.5 115 20.3 112.4 22 111.4 22.4 111 22.4 110.7 22.4 110.6 22.3 110.5 22.2 109.9 21.9 110 21.4 110.1 19.5 110.2 18.9 110.2 17.9 110.2 17.5 108.1 15.5 107 13 107 10.4 107 4.7 112.5 0 119.2 0 125.9 0 131.4 4.7 131.4 10.4 131.4 16.2 125.9 20.8 119.2 20.8ZM119.2 1.8C113.4 1.8 108.8 5.6 108.8 10.4 108.8 12.6 109.8 14.7 111.6 16.3 112.1 16.8 112 17.5 111.9 19.7 111.9 19.8 111.9 20 111.8 20.2 112.6 19.8 113.5 19.2 114.4 18.7L114.7 18.5 115.1 18.5C115.1 18.5 117.4 19.1 119.2 19.1L119.2 19.1C125 19.1 129.6 15.2 129.6 10.4 129.6 5.6 125 1.8 119.2 1.8ZM124.2 10.2L114.2 10.2C113.8 10.2 113.4 9.8 113.4 9.3 113.4 8.8 113.8 8.4 114.2 8.4L124.2 8.4C124.7 8.4 125 8.8 125 9.3 125 9.8 124.7 10.2 124.2 10.2ZM116.4 11.7L122 11.7C122.5 11.7 122.9 12.1 122.9 12.6 122.9 13.1 122.5 13.5 122 13.5L116.4 13.5C115.9 13.5 115.5 13.1 115.5 12.6 115.5 12.1 115.9 11.7 116.4 11.7Z"/>
        </g>
      </g>
    </g>
  </g>
</svg>