<svg xmlns="http://www.w3.org/2000/svg" width="450" height="61" viewBox="0 0 321 61" version="1.1">
  <g stroke="none" stroke-width="1" fill="none" fill-rule="evenodd">
    <g transform="translate(-558.000000, -100.000000)">
      <g transform="translate(-1.000000, -125.000000)">
        <g transform="translate(559.000000, 216.784658)">
          <path d="M57.4 46.6L57.4 46.6 49.1 49.1 51.6 57.5 51.6 57.5C52.1 59.5 50.9 61.7 48.7 62.3 46.6 63 44.4 61.9 43.7 59.9L43.7 59.9 41.1 51.6 27.8 55.6 30.4 64 30.4 64C30.8 66 29.6 68.2 27.5 68.8 25.4 69.5 23.2 68.4 22.4 66.4L22.4 66.4 19.9 58.1 11.5 60.6 11.5 60.6C9.5 61.1 7.3 59.9 6.7 57.7 6 55.6 7.1 53.4 9.1 52.7L9.1 52.7 17.4 50.1 13.4 36.8 5 39.4 5 39.4C3 39.8 0.8 38.6 0.2 36.5 -0.5 34.4 0.6 32.2 2.6 31.4L2.6 31.4 10.9 28.9 8.4 20.5 8.4 20.5C7.9 18.5 9.1 16.3 11.3 15.7 13.4 15 15.6 16.1 16.3 18.1L16.3 18.1 18.9 26.4 32.2 22.4 29.6 14 29.6 14C29.2 12 30.4 9.8 32.5 9.2 34.6 8.5 36.8 9.6 37.6 11.6L37.6 11.6 40.1 19.9 48.5 17.4 48.5 17.4C50.5 16.9 52.7 18.1 53.3 20.3 54 22.4 52.9 24.6 50.9 25.3L50.9 25.3 42.6 27.9 46.6 41.2 55 38.6 55 38.6C57 38.2 59.2 39.4 59.8 41.5 60.5 43.6 59.4 45.8 57.4 46.6L57.4 46.6ZM25.4 47.7L38.7 43.6 34.6 30.3 21.3 34.4 25.4 47.7Z" fill="#7DC855" fill-rule="nonzero"/>
          <text fill="#FFFFFF" font-family="SourceSansPro-Bold, Source Sans Pro" font-size="60" font-weight="bold">
            <tspan x="77.1" y="59">freelance</tspan>
          </text>
        </g>
      </g>
    </g>
  </g>
</svg>