<svg xmlns="http://www.w3.org/2000/svg" width="250" height="33" viewBox="0 0 170 33" version="1.1">
  <g stroke="none" stroke-width="1" fill="none" fill-rule="evenodd">
    <g transform="translate(-161.000000, -1812.000000)">
      <g transform="translate(159.000000, 1809.000000)">
        <path d="M27 6.8L27 6.8 27 11.5 31.7 11.5 31.7 11.5C32.8 11.6 33.7 12.5 33.7 13.7 33.7 14.9 32.8 15.9 31.7 16L31.7 16 27 16 27 23.5 31.7 23.5 31.7 23.5C32.8 23.6 33.7 24.5 33.7 25.7 33.7 26.9 32.8 27.9 31.7 28L31.7 28 27 28 27 32.7 27 32.7C26.9 33.8 25.9 34.7 24.7 34.7 23.5 34.7 22.6 33.8 22.5 32.7L22.5 32.7 22.5 28 15 28 15 32.7 15 32.7C14.9 33.8 13.9 34.7 12.7 34.7 11.5 34.7 10.6 33.8 10.5 32.7L10.5 32.7 10.5 28 5.8 28 5.8 28C4.6 27.9 3.7 26.9 3.7 25.7 3.7 24.5 4.6 23.6 5.8 23.5L5.8 23.5 10.5 23.5 10.5 16 5.8 16 5.8 16C4.6 15.9 3.7 14.9 3.7 13.7 3.7 12.5 4.6 11.6 5.8 11.5L5.8 11.5 10.5 11.5 10.5 6.8 10.5 6.8C10.6 5.6 11.5 4.7 12.7 4.7 13.9 4.7 14.9 5.6 15 6.8L15 6.8 15 11.5 22.5 11.5 22.5 6.8 22.5 6.8C22.6 5.6 23.5 4.7 24.7 4.7 25.9 4.7 26.9 5.6 27 6.8ZM22.5 23.5L22.5 16 15 16 15 23.5 22.5 23.5Z" fill="#8DC73F" fill-rule="nonzero" transform="translate(18.730147, 19.730147) rotate(73.000000) translate(-18.730147, -19.730147) "/>
        <text fill="#43474D" font-family="SourceSansPro-Bold, Source Sans Pro" font-size="30" font-weight="bold">
          <tspan x="50" y="30">freelance</tspan>
        </text>
      </g>
    </g>
  </g>
</svg>